<svg version="1.0" xmlns="http://www.w3.org/2000/svg"
    xmlns:xlink="http://www.w3.org/1999/xlink" width="100%" height="100%"
    viewBox="0 0 340.000000 250.000000" preserveAspectRatio="xMidYMid meet"
    color-interpolation-filters="sRGB" style="margin: auto;">
    <rect x="0" y="0" width="100%" height="100%" fill="#000000" fill-opacity="1"></rect>
    <g fill="#FFFFFF" transform="translate(27.7, 2.5) scale(2.4)">
        <g class="iconsvg-imagesvg" transform="translate(20.981098175048828,0)">
            <g>
                <rect fill="#FFFFFF" fill-opacity="0" stroke-width="2" x="0" y="0"
                    width="76.70000000000003" height="102.15769845498139" class="image-rect"></rect>
                <svg filter="url(#colors2746542021)" x="0" y="0"
                    width="76.70000000000003"
                    height="102.15769845498139" filtersec="colorsf4363902178"
                    class="image-svg-svg primary" style="overflow: visible;">
                    <svg xmlns:rdf="http://www.w3.org/1999/02/22-rdf-syntax-ns#"
                        xmlns="http://www.w3.org/2000/svg" xmlns:cc="http://creativecommons.org/ns#"
                        xmlns:dc="http://purl.org/dc/elements/1.1/" version="1.1" x="0px" y="0px"
                        viewBox="16.365650177001953 5.20782470703125 67.26805114746094 89.59527587890625">
                        <g transform="translate(0,-952.36218)">
                            <path
                                d="m26.71,957.57c-3.3308,0.1272-6.4672,2.4989-7.8125,5.4375h53.125c2.9329,0,5.3125,2.4109,5.3125,5.3438v75.125c3.698-1.0106,6.722-4.9684,6.25-8v-73.687c0-2.3425-1.9075-4.2188-4.25-4.2188h-52.625zm-10.188,7.6562c-0.06147,0.0558-0.09823,0.12817-0.15625,0.1875v15.125h2.7812c0.43109-0.9123,1.3615-1.5625,2.4375-1.5625,1.4869,0,2.6875,1.2006,2.6875,2.6875,0,1.487-1.2006,2.6875-2.6875,2.6875-1.0995,0-2.0506-0.64914-2.4688-1.5938h-2.75v11.188h2.75c0.4238-0.93082,1.3793-1.5625,2.4688-1.5625,1.4869,0,2.6875,1.2006,2.6875,2.6875,0,1.487-1.2006,2.6875-2.6875,2.6875-1.0908,0-2.0457-0.66114-2.4688-1.5938h-2.75v11.188h2.75c0.4238-0.9309,1.3793-1.5625,2.4688-1.5625,1.4869,0,2.6875,1.2005,2.6875,2.6875,0,1.4869-1.2006,2.6874-2.6875,2.6874-1.0908,0-2.0457-0.6611-2.4688-1.5937h-2.75v11.188h2.75c0.42308-0.9326,1.378-1.5938,2.4688-1.5938,1.4869,0,2.6875,1.2318,2.6875,2.7188,0,1.4869-1.2006,2.6875-2.6875,2.6875-1.1004,0-2.0512-0.6791-2.4688-1.625h-2.75v11.219h2.75c0.42308-0.9326,1.378-1.5937,2.4688-1.5937,1.4869,0,2.6875,1.2318,2.6875,2.7187,0,1.487-1.2006,2.6875-2.6875,2.6875-1.1004,0-2.0512-0.6791-2.4688-1.625h-2.75v10.625c0.05646,0.058,0.09657,0.1326,0.15625,0.1875h55.5c1.7521,0,3.125-1.373,3.125-3.125v-75.687c0-1.7522-1.3729-3.125-3.125-3.125h-55.5zm18.594,10.406,24.094,0,0,14.906-24.094,0,0-14.906z"></path>
                        </g>
                    </svg>
                </svg>
                <defs>
                    <filter id="colors2746542021">
                        <feColorMatrix type="matrix"
                            values="0 0 0 0 0.671875  0 0 0 0 0.16015625  0 0 0 0 0.16015625  0 0 0 1 0"
                            class="icon-fecolormatrix"></feColorMatrix>
                    </filter>
                    <filter id="colorsf4363902178">
                        <feColorMatrix type="matrix"
                            values="0 0 0 0 0.99609375  0 0 0 0 0.99609375  0 0 0 0 0.99609375  0 0 0 1 0"
                            class="icon-fecolormatrix"></feColorMatrix>
                    </filter>
                </defs>
            </g>
        </g>
        <g transform="translate(0,47.15769958496094)">
            <g data-gra="path-name" fill-rule="" class="tp-name iconsvg-namesvg">
                <g transform="scale(0.5800000000000001)">
                    <g>
                        <path
                            d="M1.22-13.8L1.08-24.83 7.13-25.9 15.25-25.57 19.96-23.38 23.64-20.48 24.6-15.1 24.34-9.35 22.97-5.49 19.96-2.52 15.4-0.59 8.46 0.04 0.96-0.3 1.08-6.01 1.22-13.8ZM10.46-20.19L7.5-19.89 7.31-14.84 7.38-9.57 7.31-5.2 10.98-5.34 14.51-5.94 17.14-7.72 18.85-12.62 18-17.07 14.47-20.04 10.46-20.19ZM36.11-13.06L33.47-12.69 31.1-10.13 31.13-6.64 33.51-4.64 37.59-5.83 39.56-7.27 39.41-12.1 36.11-13.06ZM34.66-18.26L39.67-17.66 39.78-19.07 44.72-18 44.49-15.7 44.87-9.13 46.65 0 41.71 0.52 40.56-1.67 36.92 0.22 30.28 0 26.42-3.75 25.9-10.95 30.02-16.7 34.66-18.26ZM53.29-21.52L49.28-21.67 47.95-23.3 47.65-25.98 52.1-27.46 55.52-25.68 55.37-23.01 53.29-21.52ZM48.69-14.1L48.39-18.26 51.36-18.11 54.63-18.85 54.18-10.24 54.77-1.34 55.37 0.3 51.36-0.3 48.24 0.15 48.69-6.09 48.69-14.1ZM58.56-21.82L58.41-25.53 61.23-26.57 64.2-28.65 64.2-14.25 64.64-1.34 65.09 0.59 61.23 0.89 58.26 1.48 58.71-12.62 58.56-21.82ZM66.98-15.25L65.79-16.92 68.24-18.22 70.4-20 74.59-13.54 77.74-8.79 82.2-15.96 83.9-19.59 86.95-17.89 89.17-16.88 77.48 2.49 74.78 6.53 72.73 5.75 69.69 3.9 74.63-3.9 69.88-10.95 66.98-15.25ZM88.39-21.23L87.24-23.64 90.14-24.38 93.33-25.75 96.19-16.81 99.12-8.98 101.46-16.37 103.57-25.12 110.07-24.38 112.89-14.58 115.37-7.68 118.49-19.45 120.42-26.05 124.24-24.83 125.99-24.49 122.28-11.43 119.75-0.48 112.52 1.11 108.95-9.39 106.76-14.55 102.94-1.74 102.46 0.48 96.37 1.56 93.11-8.5 88.39-21.23ZM137.42-14.1L134.63-14.25 131.74-12.28 130.7-9.72 131.14-6.98 133.37-5.08 136.23-4.45 139.12-5.27 141.13-7.13 141.24-10.35 139.87-12.58 137.42-14.1ZM140.83-0.3L136.67 0.45 132.63-0.15 128.96-1.89 126.39-5.2 125.58-8.83 125.8-11.65 127.4-15.4 131.33-18.29 136.19-19.33 141.24-18.11 145.25-14.96 146.88-10.06 146.29-6.2 144.73-2.93 140.83-0.3ZM148.85-13.66L148.03-17.85 151.22-18.15 154.45-19 154.38-17 156.94-18.15 160.57-18.59 165.03-17.26 165.95-14.29 162.35-10.98 159.35-13.69 154.26-12.32 154.12-9.46 154.6-0.89 154.75 0.11 151.37 0.37 147.99 0.37 148.99-7.94 148.85-13.66ZM180.69-5.31L180.72-6.12 180.54-11.73 178.05-12.36 175.34-12.36 172.41-11.1 171.82-7.2 173.63-4.97 176.49-4.53 179.65-4.97 180.69-5.31ZM180.39-17.52L179.68-27.35 182.62-26.87 186.1-26.87 186.25-13.1 186.55-3.93 187.18-0.37 184.1 0.15 180.57 0.63 180.57 0.04 178.27 0.59 173.71 0.89 169.66-0.22 167.29-4.16 166.29-7.87 166.7-12.54 168.92-15.66 173.82-18.04 177.64-18.15 180.39-17.52ZM199.46-19.15L203.17-18.15 205.44-17.07 203.84-12.51 202.32-13.1 198.54-14.29 195.49-14.62 194.08-14.18 193.41-13.32 193.9-12.43 194.9-11.88 202.43-9.28 204.32-7.76 205.55-5.12 204.88-2.15 202.58-0.26 198.83 0.56 193.49 0.48 187.48-1.19 188.55-3.6 189.78-5.68 193.75-4.27 196.94-3.97 199.02-4.3 199.43-5.05 198.76-5.64 193.27-7.42 190.52-8.68 188.59-10.24 188.07-13.21 188.29-15.99 190.26-18 193.64-19.26 199.46-19.15Z"
                            transform="translate(-0.9600000381469727, 28.649999618530273)"></path>
                    </g>
                </g>
            </g>
        </g>
    </g>
    <defs v-gra="od">
</defs>
</svg>